<?xml version="1.0" encoding="UTF-8"?>
<!DOCTYPE svg PUBLIC "-//W3C//DTD SVG 1.1//EN" "http://www.w3.org/Graphics/SVG/1.1/DTD/svg11.dtd">
<svg id="logo" xmlns="http://www.w3.org/2000/svg" style="shape-rendering:geometricPrecision; text-rendering:geometricPrecision; image-rendering:optimizeQuality; fill-rule:evenodd; clip-rule:evenodd" xmlns:xlink="http://www.w3.org/1999/xlink">
<g><path style="opacity:0.931" d="M 418.5,-0.5 C 422.167,-0.5 425.833,-0.5 429.5,-0.5C 435.528,3.5747 437.695,9.24137 436,16.5C 420.472,52.7518 405.138,89.0851 390,125.5C 385.775,132.358 380.775,133.025 375,127.5C 374.333,124.833 374.333,122.167 375,119.5C 387.667,89.5 400.333,59.5 413,29.5C 414.639,26.2577 415.639,22.9243 416,19.5C 361.912,47.7942 307.745,75.9609 253.5,104C 276.05,152.314 298.217,200.814 320,249.5C 333.724,216.384 347.724,183.384 362,150.5C 366.333,146.5 370.667,146.5 375,150.5C 376.422,153.03 376.755,155.697 376,158.5C 360.403,195.126 344.903,231.793 329.5,268.5C 379.471,343.636 429.637,418.636 480,493.5C 482.418,501.166 480.251,507.166 473.5,511.5C 469.833,511.5 466.167,511.5 462.5,511.5C 433.94,503.022 405.273,494.522 376.5,486C 373.894,484.062 372.061,481.562 371,478.5C 366.844,464.211 362.844,449.878 359,435.5C 358.727,433.671 357.893,432.171 356.5,431C 328.21,423.178 299.877,415.511 271.5,408C 267.38,407.181 263.546,405.681 260,403.5C 256.432,396.123 258.598,391.789 266.5,390.5C 295.157,397.998 323.824,405.164 352.5,412C 340.138,368.413 327.471,324.913 314.5,281.5C 261.957,307.938 209.29,334.105 156.5,360C 183.167,367.333 209.833,374.667 236.5,382C 241.833,386.667 241.833,391.333 236.5,396C 235,396.167 233.5,396.333 232,396.5C 197.247,388.082 162.747,378.749 128.5,368.5C 126.747,365.995 125.247,363.329 124,360.5C 110.925,328.022 97.5917,295.689 84,263.5C 71.7623,273.412 59.2623,282.912 46.5,292C 36.8107,293.658 31.144,289.658 29.5,280C 37.9223,250.477 46.4223,220.977 55,191.5C 55.6064,188.452 57.1064,185.952 59.5,184C 94.5,183.333 129.5,183.333 164.5,184C 173.024,192.528 180.857,201.695 188,211.5C 202.333,176.833 216.667,142.167 231,107.5C 232.847,102.306 235.347,97.4722 238.5,93C 298.718,62.059 358.718,30.8923 418.5,-0.5 Z M 150.5,344.5 C 180.914,269.925 211.914,195.592 243.5,121.5C 265.686,169.381 287.686,217.381 309.5,265.5C 256.664,292.085 203.664,318.418 150.5,344.5 Z M 75.5,199.5 C 102.664,198.336 129.997,198.17 157.5,199C 165,208.5 172.5,218 180,227.5C 165.286,265.283 149.953,302.95 134,340.5C 114.465,293.441 94.9652,246.441 75.5,199.5 Z M 64.5,215.5 C 69.057,225.629 73.3903,235.962 77.5,246.5C 68.7968,254.702 59.6302,262.368 50,269.5C 54.5051,251.485 59.3384,233.485 64.5,215.5 Z M 342.5,318.5 C 382.371,376.27 421.204,434.604 459,493.5C 434.563,486.475 410.23,479.141 386,471.5C 371.392,420.512 356.892,369.512 342.5,318.5 Z"/></g>
</svg>
